<?xml version="1.0" encoding="iso-8859-1"?>
<!-- Generator: Adobe Illustrator 17.1.0, SVG Export Plug-In . SVG Version: 6.00 Build 0)  -->
<!DOCTYPE svg PUBLIC "-//W3C//DTD SVG 1.1//EN" "http://www.w3.org/Graphics/SVG/1.1/DTD/svg11.dtd">
<svg version="1.1" id="Capa_1" xmlns="http://www.w3.org/2000/svg" xmlns:xlink="http://www.w3.org/1999/xlink" x="0px" y="0px"
	 viewBox="0 0 236.064 236.064" style="enable-background:new 0 0 236.064 236.064;" xml:space="preserve">
<g>
	<path d="M142.371,23.449H95.26c-0.046,0-0.09,0.006-0.136,0.007c-0.181-0.001-0.36-0.007-0.541-0.007c-4.143,0-7.5,3.357-7.5,7.5
		s3.357,7.5,7.5,7.5c43.882,0,79.583,35.701,79.583,79.583c0,43.392-34.913,78.76-78.121,79.546H95.26
		c-0.242,0-0.48,0.014-0.716,0.036C50.68,197.593,15,161.901,15,118.032c0-25.321,11.643-48.559,31.941-63.755
		c3.316-2.482,3.992-7.183,1.51-10.498c-2.482-3.317-7.184-3.993-10.498-1.51C13.833,60.325,0,87.939,0,118.032
		c0,52.153,42.43,94.583,94.583,94.583c0.869,0,1.735-0.014,2.599-0.037h45.189c51.663,0,93.693-42.031,93.693-93.694v-1.741
		C236.064,65.479,194.034,23.449,142.371,23.449z M145.834,197.49c11.071-7.166,20.554-16.582,27.803-27.595h28.582
		C188.476,185.997,168.376,196.508,145.834,197.49z M221.064,118.884c0,12.974-3.175,25.212-8.759,36.012h-30.62
		c3.887-9.15,6.372-19.035,7.185-29.382h17.622c4.143,0,7.5-3.357,7.5-7.5s-3.357-7.5-7.5-7.5h-17.625
		c-0.911-11.532-3.903-22.487-8.594-32.493h10.303c4.143,0,7.5-3.357,7.5-7.5s-3.357-7.5-7.5-7.5H171.66
		c-0.06,0-0.117,0.007-0.176,0.009c-6.948-9.687-15.678-18.013-25.708-24.494c41.817,1.791,75.289,36.357,75.289,78.607V118.884z"/>
	<path d="M52.695,126.973c0,4.46,3.494,7.954,7.954,7.954h0.134c4.595,19.957,18.198,30.07,40.463,30.07
		c13.837,0,26.659-5.632,33.475-14.712c1.146-1.551,1.75-3.382,1.75-5.297c0-5.155-4.193-9.349-9.349-9.349
		c-2.548,0-4.773,1.085-7.241,3.541c-5.718,5.844-10.071,7.625-18.635,7.625c-10.636,0-16.52-3.489-19.586-11.879h11.973
		c4.46,0,7.954-3.494,7.954-7.954s-3.494-7.954-7.954-7.954H79.264v-0.578h14.369c4.386,0,7.954-3.568,7.954-7.954
		c0-4.46-3.494-7.954-7.954-7.954H81.34c3.109-9.149,9.361-13.273,19.906-13.273c7.856,0,12.877,2.25,17.9,8.018
		c1.946,2.254,4.331,3.396,7.087,3.396c5.155,0,9.349-4.138,9.349-9.225c0-1.976-0.561-3.694-1.829-5.593
		c-3.77-5.522-13.004-14.788-32.507-14.788c-22.172,0-36.178,10.867-40.626,31.465c-4.446,0.016-7.925,3.504-7.925,7.954
		c0,3.834,2.727,7.043,6.343,7.79v0.898C55.376,119.901,52.695,123.066,52.695,126.973z"/>
</g>
<g>
</g>
<g>
</g>
<g>
</g>
<g>
</g>
<g>
</g>
<g>
</g>
<g>
</g>
<g>
</g>
<g>
</g>
<g>
</g>
<g>
</g>
<g>
</g>
<g>
</g>
<g>
</g>
<g>
</g>
</svg>
