<?xml version="1.0" encoding="iso-8859-1"?>
<!-- Generator: Adobe Illustrator 17.1.0, SVG Export Plug-In . SVG Version: 6.00 Build 0)  -->
<!DOCTYPE svg PUBLIC "-//W3C//DTD SVG 1.1//EN" "http://www.w3.org/Graphics/SVG/1.1/DTD/svg11.dtd">
<svg version="1.1" id="Capa_1" xmlns="http://www.w3.org/2000/svg" xmlns:xlink="http://www.w3.org/1999/xlink" x="0px" y="0px"
	 viewBox="0 0 236.064 236.064" style="enable-background:new 0 0 236.064 236.064;" xml:space="preserve">
<g>
	<path d="M142.371,23.449H95.26c-0.046,0-0.09,0.006-0.136,0.007c-0.181-0.001-0.36-0.007-0.541-0.007
		C42.43,23.449,0,65.879,0,118.032s42.43,94.583,94.583,94.583c0.869,0,1.735-0.014,2.599-0.037h45.189
		c51.663,0,93.693-42.031,93.693-93.694v-1.741C236.064,65.479,194.034,23.449,142.371,23.449z M199.417,63.021H171.66
		c-0.06,0-0.117,0.007-0.176,0.009c-6.948-9.687-15.678-18.013-25.708-24.494C166.854,39.438,185.798,48.673,199.417,63.021z
		 M96.045,197.578H95.26c-0.242,0-0.48,0.014-0.716,0.036C50.68,197.593,15,161.901,15,118.032
		c0-43.882,35.701-79.583,79.583-79.583s79.583,35.701,79.583,79.583C174.166,161.424,139.253,196.792,96.045,197.578z
		 M145.834,197.49c11.071-7.166,20.554-16.582,27.803-27.595h28.582C188.476,185.997,168.376,196.508,145.834,197.49z
		 M221.064,118.884c0,12.974-3.175,25.212-8.759,36.012h-30.62c3.887-9.15,6.372-19.035,7.185-29.382h16.215
		c4.143,0,7.5-3.357,7.5-7.5s-3.357-7.5-7.5-7.5h-16.219c-0.911-11.532-3.903-22.487-8.594-32.493h30.334
		c6.638,11.533,10.458,24.886,10.458,39.122V118.884z"/>
	<path d="M98.925,107.796c-9.188-3.02-14.766-5.17-14.766-9.566c0-4.362,4.015-6.864,11.014-6.864c5.611,0,11.307,2.138,14.896,5.61
		c2.4,2.24,4.563,3.283,6.802,3.283c4.909,0,8.902-3.942,8.902-8.789c0-1.82-0.557-3.612-1.646-5.235
		c-4.041-5.709-11.576-9.795-20.881-11.383v-4.723c0-4.451-3.622-8.073-8.074-8.073c-4.386,0-7.954,3.622-7.954,8.073v4.579
		c-13.712,2.248-21.817,10.915-21.817,23.521c0,17.877,15.184,22.892,27.383,26.921c9.858,3.256,15.9,5.53,15.9,11.021
		c0,3.915-1.536,8.408-13.512,8.408c-6.322,0-12.104-2.709-17.677-8.28c-1.329-1.329-3.338-3.338-6.983-3.338
		c-4.843,0-8.783,3.993-8.783,8.902c0,1.622,0.472,3.271,1.321,4.635c4.56,7.38,13.887,13.098,24.168,14.944v4.492
		c0,4.451,3.568,8.073,7.954,8.073c4.452,0,8.074-3.622,8.074-8.073v-4.424c15.411-2.226,24.189-11.365,24.189-25.34
		C127.437,117.166,110.957,111.75,98.925,107.796z"/>
</g>
<g>
</g>
<g>
</g>
<g>
</g>
<g>
</g>
<g>
</g>
<g>
</g>
<g>
</g>
<g>
</g>
<g>
</g>
<g>
</g>
<g>
</g>
<g>
</g>
<g>
</g>
<g>
</g>
<g>
</g>
</svg>
